{
  "accessors": [
    {
      "bufferView": 2,
      "componentType": 5126,
      "count": 5149,
      "max": [
        100,
        100,
        100
      ],
      "min": [
        -100,
        -100,
        -100
      ],
      "type": "VEC3"
    },
    {
      "bufferView": 2,
      "byteOffset": 61788,
      "componentType": 5126,
      "count": 5149,
      "max": [
        1,
        1,
        1
      ],
      "min": [
        -1,
        -1,
        -1
      ],
      "type": "VEC3"
    },
    {
      "bufferView": 3,
      "componentType": 5126,
      "count": 5149,
      "max": [
        1,
        1,
        0.015678651630878448,
        1
      ],
      "min": [
        -1,
        -1,
        -0.015678694471716881,
        1
      ],
      "type": "VEC4"
    },
    {
      "bufferView": 1,
      "componentType": 5126,
      "count": 5149,
      "max": [
        1.0000002384185791,
        1
      ],
      "min": [
        0,
        -2.384185791015625e-07
      ],
      "type": "VEC2"
    },
    {
      "bufferView": 0,
      "componentType": 5125,
      "count": 29400,
      "max": [
        5148
      ],
      "min": [
        0
      ],
      "type": "SCALAR"
    },
    {
      "bufferView": 2,
      "byteOffset": 123576,
      "componentType": 5126,
      "count": 494,
      "max": [
        -76.857872009277344,
        345.83734130859375,
        16.345010757446289
      ],
      "min": [
        -109.19071960449219,
        313.326416015625,
        -16.345010757446289
      ],
      "type": "VEC3"
    },
    {
      "bufferView": 2,
      "byteOffset": 129504,
      "componentType": 5126,
      "count": 494,
      "max": [
        0.98914867639541626,
        0.99459689855575562,
        1
      ],
      "min": [
        -0.98914849758148193,
        -0.99459683895111084,
        -1
      ],
      "type": "VEC3"
    },
    {
      "bufferView": 3,
      "byteOffset": 82384,
      "componentType": 5126,
      "count": 494,
      "max": [
        1,
        1,
        0.052082691341638565,
        1
      ],
      "min": [
        -0.99994051456451416,
        -1,
        -0.052083626389503479,
        1
      ],
      "type": "VEC4"
    },
    {
      "bufferView": 1,
      "byteOffset": 41192,
      "componentType": 5126,
      "count": 494,
      "max": [
        1.0000004768371582,
        1
      ],
      "min": [
        0,
        -1.1920928955078125e-07
      ],
      "type": "VEC2"
    },
    {
      "bufferView": 0,
      "byteOffset": 117600,
      "componentType": 5125,
      "count": 2520,
      "max": [
        493
      ],
      "min": [
        0
      ],
      "type": "SCALAR"
    },
    {
      "bufferView": 2,
      "byteOffset": 135432,
      "componentType": 5126,
      "count": 5149,
      "max": [
        100,
        100,
        100
      ],
      "min": [
        -100,
        -100,
        -100
      ],
      "type": "VEC3"
    },
    {
      "bufferView": 2,
      "byteOffset": 197220,
      "componentType": 5126,
      "count": 5149,
      "max": [
        1,
        1,
        1
      ],
      "min": [
        -1,
        -1,
        -1
      ],
      "type": "VEC3"
    },
    {
      "bufferView": 3,
      "byteOffset": 90288,
      "componentType": 5126,
      "count": 5149,
      "max": [
        1,
        1,
        0.015678651630878448,
        1
      ],
      "min": [
        -1,
        -1,
        -0.015678694471716881,
        1
      ],
      "type": "VEC4"
    },
    {
      "bufferView": 1,
      "byteOffset": 45144,
      "componentType": 5126,
      "count": 5149,
      "max": [
        1.0000002384185791,
        1
      ],
      "min": [
        0,
        -2.384185791015625e-07
      ],
      "type": "VEC2"
    },
    {
      "bufferView": 0,
      "byteOffset": 127680,
      "componentType": 5125,
      "count": 29400,
      "max": [
        5148
      ],
      "min": [
        0
      ],
      "type": "SCALAR"
    },
    {
      "bufferView": 4,
      "componentType": 5126,
      "count": 2,
      "max": [
        50
      ],
      "min": [
        0
      ],
      "type": "SCALAR"
    },
    {
      "bufferView": 5,
      "componentType": 5126,
      "count": 2,
      "max": [
        0.092928119003772736,
        0,
        0.092917829751968384
      ],
      "min": [
        0.092928119003772736,
        0,
        0.092917829751968384
      ],
      "type": "VEC3"
    },
    {
      "bufferView": 4,
      "byteOffset": 8,
      "componentType": 5126,
      "count": 2,
      "max": [
        50
      ],
      "min": [
        0
      ],
      "type": "SCALAR"
    },
    {
      "bufferView": 5,
      "byteOffset": 24,
      "componentType": 5126,
      "count": 2,
      "max": [
        1,
        1,
        1
      ],
      "min": [
        1,
        1,
        1
      ],
      "type": "VEC3"
    },
    {
      "bufferView": 4,
      "byteOffset": 16,
      "componentType": 5126,
      "count": 2900,
      "max": [
        50
      ],
      "min": [
        0
      ],
      "type": "SCALAR"
    },
    {
      "bufferView": 6,
      "componentType": 5126,
      "count": 2900,
      "max": [
        0.49916279315948486,
        0.70710676908493042,
        0.70710676908493042,
        0.70710676908493042
      ],
      "min": [
        -0.70710676908493042,
        -0.49885085225105286,
        -0.49885085225105286,
        -0.49916279315948486
      ],
      "type": "VEC4"
    },
    {
      "bufferView": 4,
      "byteOffset": 11616,
      "componentType": 5126,
      "count": 2,
      "max": [
        50
      ],
      "min": [
        0
      ],
      "type": "SCALAR"
    },
    {
      "bufferView": 5,
      "byteOffset": 48,
      "componentType": 5126,
      "count": 2,
      "max": [
        0.092928119003772736,
        0,
        0.092917829751968384
      ],
      "min": [
        0.092928119003772736,
        0,
        0.092917829751968384
      ],
      "type": "VEC3"
    },
    {
      "bufferView": 4,
      "byteOffset": 11624,
      "componentType": 5126,
      "count": 2,
      "max": [
        50
      ],
      "min": [
        0
      ],
      "type": "SCALAR"
    },
    {
      "bufferView": 5,
      "byteOffset": 72,
      "componentType": 5126,
      "count": 2,
      "max": [
        1,
        1,
        1
      ],
      "min": [
        1,
        1,
        1
      ],
      "type": "VEC3"
    },
    {
      "bufferView": 4,
      "byteOffset": 11632,
      "componentType": 5126,
      "count": 2901,
      "max": [
        50
      ],
      "min": [
        0
      ],
      "type": "SCALAR"
    },
    {
      "bufferView": 6,
      "byteOffset": 46400,
      "componentType": 5126,
      "count": 2901,
      "max": [
        0.49870508909225464,
        0.70710593461990356,
        0.70710593461990356,
        0.70710676908493042
      ],
      "min": [
        -0.70710676908493042,
        -0.49991050362586975,
        -0.49991050362586975,
        -0.49870508909225464
      ],
      "type": "VEC4"
    },
    {
      "bufferView": 4,
      "byteOffset": 23236,
      "componentType": 5126,
      "count": 2,
      "max": [
        50
      ],
      "min": [
        0
      ],
      "type": "SCALAR"
    },
    {
      "bufferView": 5,
      "byteOffset": 96,
      "componentType": 5126,
      "count": 2,
      "max": [
        0.092928119003772736,
        0,
        0.092917829751968384
      ],
      "min": [
        0.092928119003772736,
        0,
        0.092917829751968384
      ],
      "type": "VEC3"
    },
    {
      "bufferView": 4,
      "byteOffset": 23244,
      "componentType": 5126,
      "count": 2,
      "max": [
        50
      ],
      "min": [
        0
      ],
      "type": "SCALAR"
    },
    {
      "bufferView": 5,
      "byteOffset": 120,
      "componentType": 5126,
      "count": 2,
      "max": [
        0.9627419114112854,
        0.9627419114112854,
        0.9627419114112854
      ],
      "min": [
        0.9627419114112854,
        0.9627419114112854,
        0.9627419114112854
      ],
      "type": "VEC3"
    },
    {
      "bufferView": 4,
      "byteOffset": 23252,
      "componentType": 5126,
      "count": 2901,
      "max": [
        50
      ],
      "min": [
        0
      ],
      "type": "SCALAR"
    },
    {
      "bufferView": 6,
      "byteOffset": 92816,
      "componentType": 5126,
      "count": 2901,
      "max": [
        0.49797886610031128,
        0.70710676908493042,
        0.70710676908493042,
        0.70710676908493042
      ],
      "min": [
        -0.70710676908493042,
        -0.49998959898948669,
        -0.49998959898948669,
        -0.49797886610031128
      ],
      "type": "VEC4"
    }
  ],
  "animations": [
    {
      "channels": [
        {
          "sampler": 0,
          "target": {
            "node": 5,
            "path": "translation"
          }
        },
        {
          "sampler": 1,
          "target": {
            "node": 5,
            "path": "scale"
          }
        },
        {
          "sampler": 2,
          "target": {
            "node": 5,
            "path": "rotation"
          }
        },
        {
          "sampler": 3,
          "target": {
            "node": 7,
            "path": "translation"
          }
        },
        {
          "sampler": 4,
          "target": {
            "node": 7,
            "path": "scale"
          }
        },
        {
          "sampler": 5,
          "target": {
            "node": 7,
            "path": "rotation"
          }
        },
        {
          "sampler": 6,
          "target": {
            "node": 9,
            "path": "translation"
          }
        },
        {
          "sampler": 7,
          "target": {
            "node": 9,
            "path": "scale"
          }
        },
        {
          "sampler": 8,
          "target": {
            "node": 9,
            "path": "rotation"
          }
        }
      ],
      "name": "Take 001",
      "samplers": [
        {
          "input": 15,
          "interpolation": "LINEAR",
          "output": 16
        },
        {
          "input": 17,
          "interpolation": "LINEAR",
          "output": 18
        },
        {
          "input": 19,
          "interpolation": "LINEAR",
          "output": 20
        },
        {
          "input": 21,
          "interpolation": "LINEAR",
          "output": 22
        },
        {
          "input": 23,
          "interpolation": "LINEAR",
          "output": 24
        },
        {
          "input": 25,
          "interpolation": "LINEAR",
          "output": 26
        },
        {
          "input": 27,
          "interpolation": "LINEAR",
          "output": 28
        },
        {
          "input": 29,
          "interpolation": "LINEAR",
          "output": 30
        },
        {
          "input": 31,
          "interpolation": "LINEAR",
          "output": 32
        }
      ]
    }
  ],
  "asset": {
    "extras": {
      "author": "Mustafa Küçükavşar (https://sketchfab.com/kobol1)",
      "license": "CC-BY-4.0 (http://creativecommons.org/licenses/by/4.0/)",
      "source": "https://sketchfab.com/models/7346263a68554cb3b536a872d5868374",
      "title": "Earth and Moon(Animated)"
    },
    "generator": "Sketchfab-3.20.7",
    "version": "2.0"
  },
  "bufferViews": [
    {
      "buffer": 0,
      "byteLength": 245280,
      "byteOffset": 0,
      "name": "floatBufferViews",
      "target": 34963
    },
    {
      "buffer": 0,
      "byteLength": 86336,
      "byteOffset": 245280,
      "byteStride": 8,
      "name": "floatBufferViews",
      "target": 34962
    },
    {
      "buffer": 0,
      "byteLength": 259008,
      "byteOffset": 331616,
      "byteStride": 12,
      "name": "floatBufferViews",
      "target": 34962
    },
    {
      "buffer": 0,
      "byteLength": 172672,
      "byteOffset": 590624,
      "byteStride": 16,
      "name": "floatBufferViews",
      "target": 34962
    },
    {
      "buffer": 0,
      "byteLength": 34856,
      "byteOffset": 763296,
      "name": "floatBufferViews"
    },
    {
      "buffer": 0,
      "byteLength": 144,
      "byteOffset": 798152,
      "byteStride": 12,
      "name": "floatBufferViews"
    },
    {
      "buffer": 0,
      "byteLength": 139232,
      "byteOffset": 798296,
      "byteStride": 16,
      "name": "floatBufferViews"
    }
  ],
  "buffers": [
    {
      "byteLength": 937528,
      "uri": "scene.bin"
    }
  ],
  "images": [
    {
      "uri": "textures/atmosphere_baseColor.png"
    },
    {
      "uri": "textures/moon_baseColor.jpg"
    },
    {
      "uri": "textures/kure_metallicRoughness.png"
    },
    {
      "uri": "textures/kure_normal.png"
    },
    {
      "uri": "textures/kure_baseColor.jpg"
    }
  ],
  "materials": [
    {
      "alphaMode": "BLEND",
      "doubleSided": true,
      "emissiveFactor": [
        0.01146972791,
        0.53920904326999997,
        0.75628664285000002
      ],
      "name": "atmosphere",
      "pbrMetallicRoughness": {
        "baseColorFactor": [
          1,
          1,
          1,
          0.81999999999999995
        ],
        "baseColorTexture": {
          "index": 0,
          "texCoord": 0
        },
        "metallicFactor": 0,
        "roughnessFactor": 0.42999999999999999
      }
    },
    {
      "doubleSided": true,
      "emissiveFactor": [
        0,
        0,
        0
      ],
      "name": "moon",
      "pbrMetallicRoughness": {
        "baseColorFactor": [
          1,
          1,
          1,
          1
        ],
        "baseColorTexture": {
          "index": 1,
          "texCoord": 0
        },
        "metallicFactor": 0,
        "roughnessFactor": 0.59999999999999998
      }
    },
    {
      "doubleSided": true,
      "emissiveFactor": [
        0.00044893814,
        0.015725853049999999,
        0.051224159470000002
      ],
      "name": "kure",
      "normalTexture": {
        "index": 3,
        "scale": 0.44,
        "texCoord": 0
      },
      "occlusionTexture": {
        "index": 2,
        "strength": 1,
        "texCoord": 0
      },
      "pbrMetallicRoughness": {
        "baseColorFactor": [
          1,
          1,
          1,
          1
        ],
        "baseColorTexture": {
          "index": 4,
          "texCoord": 0
        },
        "metallicFactor": 0,
        "roughnessFactor": 0.56999999999999995
      }
    }
  ],
  "meshes": [
    {
      "name": "Sphere001_atmosphere_0",
      "primitives": [
        {
          "attributes": {
            "NORMAL": 1,
            "POSITION": 0,
            "TANGENT": 2,
            "TEXCOORD_0": 3
          },
          "indices": 4,
          "material": 0,
          "mode": 4
        }
      ]
    },
    {
      "name": "moon_moon_0",
      "primitives": [
        {
          "attributes": {
            "NORMAL": 6,
            "POSITION": 5,
            "TANGENT": 7,
            "TEXCOORD_0": 8
          },
          "indices": 9,
          "material": 1,
          "mode": 4
        }
      ]
    },
    {
      "name": "Sphere002_kure_0",
      "primitives": [
        {
          "attributes": {
            "NORMAL": 11,
            "POSITION": 10,
            "TANGENT": 12,
            "TEXCOORD_0": 13
          },
          "indices": 14,
          "material": 2,
          "mode": 4
        }
      ]
    }
  ],
  "nodes": [
    {
      "children": [
        1
      ],
      "name": "RootNode (gltf orientation matrix)",
      "rotation": [
        -0.70710678118654746,
        -0,
        -0,
        0.70710678118654757
      ]
    },
    {
      "children": [
        2
      ],
      "matrix": [
        1,
        0,
        0,
        0,
        0,
        0.999988853931427,
        0.0047225248999893665,
        0,
        0,
        -0.0047225248999893665,
        0.999988853931427,
        0,
        0,
        0.00020046190184075385,
        -0.086810573935508728,
        1
      ],
      "name": "RootNode (model correction matrix)"
    },
    {
      "children": [
        3
      ],
      "matrix": [
        1,
        0,
        0,
        0,
        0,
        0,
        1,
        0,
        0,
        -1,
        0,
        0,
        0,
        0,
        0,
        1
      ],
      "name": "1b129f4c84014c9682d64150e381947f.fbx"
    },
    {
      "children": [
        4
      ],
      "name": ""
    },
    {
      "children": [
        5,
        7,
        9
      ],
      "name": "RootNode"
    },
    {
      "children": [
        6
      ],
      "name": "Sphere001",
      "rotation": [
        -0.7071068286895752,
        -2.1354034629439411e-07,
        -2.1354034629439411e-07,
        0.7071068286895752
      ],
      "translation": [
        0.092928119003772736,
        0,
        0.092917829751968384
      ]
    },
    {
      "mesh": 0,
      "name": "Sphere001_atmosphere_0"
    },
    {
      "children": [
        8
      ],
      "name": "moon",
      "rotation": [
        -0.70710593461990356,
        0.001116171944886446,
        0.001116171944886446,
        0.70710593461990356
      ],
      "translation": [
        0.092928119003772736,
        0,
        0.092917829751968384
      ]
    },
    {
      "mesh": 1,
      "name": "moon_moon_0"
    },
    {
      "children": [
        10
      ],
      "name": "Sphere002",
      "rotation": [
        -0.7071068286895752,
        -2.135403320835394e-07,
        -2.135403320835394e-07,
        0.7071068286895752
      ],
      "scale": [
        0.9627419114112854,
        0.9627419114112854,
        0.9627419114112854
      ],
      "translation": [
        0.092928119003772736,
        0,
        0.092917829751968384
      ]
    },
    {
      "mesh": 2,
      "name": "Sphere002_kure_0"
    }
  ],
  "samplers": [
    {
      "magFilter": 9729,
      "minFilter": 9987,
      "wrapS": 10497,
      "wrapT": 10497
    }
  ],
  "scene": 0,
  "scenes": [
    {
      "name": "OSG_Scene",
      "nodes": [
        0
      ]
    }
  ],
  "textures": [
    {
      "sampler": 0,
      "source": 0
    },
    {
      "sampler": 0,
      "source": 1
    },
    {
      "sampler": 0,
      "source": 2
    },
    {
      "sampler": 0,
      "source": 3
    },
    {
      "sampler": 0,
      "source": 4
    }
  ]
}

